<svg width="1280" height="720" viewBox="0 0 1280 720" fill="none" xmlns="http://www.w3.org/2000/svg">
<rect width="1280" height="720" fill="white"/>
<path fill-rule="evenodd" clip-rule="evenodd" d="M0 164.266V328.534H246.186H492.374V164.266V0H246.186H0V164.266ZM71.3632 33.92L76.544 49.92L94.2272 50.3456L111.907 50.7744L101.904 58.0256C83.7408 71.1968 83.6032 71.3248 84.4544 74.016C84.864 75.312 87.1488 82.3616 89.5328 89.68C91.9168 96.9984 93.8656 103.418 93.8656 103.946C93.8656 104.47 88.4928 100.979 81.9264 96.1856C75.36 91.3888 68.928 86.8192 67.6352 86.0256L65.28 84.5856L51.4144 94.7616C43.7856 100.358 37.5488 104.464 37.5488 103.882C37.552 103.302 39.8144 95.9136 42.5792 87.4656C45.8272 77.5424 47.328 71.7632 46.816 71.1328C46.3808 70.5984 40.0416 65.7984 32.7232 60.4672L19.4208 50.7744L37.0816 50.3456L54.7424 49.92L58.9536 37.12C61.2704 30.08 63.5584 22.88 64.0416 21.12C65.4112 16.1248 65.8528 16.8992 71.3632 33.92ZM432.346 33.92L437.504 49.92L455.229 50.3456L472.95 50.7744L459.648 60.4672C452.333 65.7984 445.978 70.6048 445.526 71.1488C444.982 71.8048 446.394 77.2288 449.766 87.4368C452.55 95.8528 454.826 103.232 454.826 103.834C454.826 104.438 448.506 100.301 440.778 94.64L426.726 84.3488L412.829 94.512C405.187 100.102 398.816 104.387 398.672 104.032C398.426 103.43 404.678 83.4336 407.661 75.2864C408.394 73.2832 408.842 71.504 408.656 71.3376C408.47 71.168 404.48 68.2432 399.786 64.8352C395.094 61.4272 388.816 56.8704 385.837 54.7072L380.419 50.7744L398.125 50.3456L415.83 49.92L420.986 33.92C423.824 25.12 426.378 17.92 426.666 17.92C426.954 17.92 429.51 25.12 432.346 33.92ZM264.557 34.1696C351.35 44.8448 402.902 141.926 364 221.44C302.979 346.15 115.728 302.717 115.677 163.84C115.645 83.376 183.578 24.208 264.557 34.1696ZM69.9392 226.56C71.8528 232.662 74.224 239.853 75.2064 242.544L76.9952 247.434L94.3456 247.664L111.696 247.894L97.6544 258.08C85.696 266.758 83.6928 268.531 84.1408 270.029C84.432 270.995 86.7392 278.144 89.2672 285.91C94.7424 302.726 94.7552 302.854 90.6656 299.661C84.4928 294.842 67.2224 282.326 66.2112 281.939C65.2608 281.574 61.7312 283.997 44.16 297.078C36.2368 302.976 36.3168 303.648 42.6528 284.205C47.4112 269.603 47.6576 268.461 46.2784 267.402C45.4656 266.778 39.1616 262.131 32.2688 257.078L19.7344 247.894L37.1424 247.664L54.5472 247.434L59.9136 230.867C62.864 221.754 65.5456 214.563 65.8688 214.883C66.1952 215.203 68.0256 220.458 69.9392 226.56ZM431.683 228.906C434.15 236.534 436.57 243.821 437.059 245.104L437.952 247.434L455.421 247.664L472.89 247.894L458.73 258.077C446.592 266.806 444.65 268.512 445.117 270.022C445.418 270.992 447.83 278.41 450.477 286.506C453.126 294.602 454.998 301.226 454.637 301.226C454.278 301.226 448.218 296.989 441.171 291.811C425.984 280.646 426.698 280.982 423.587 283.52C418.022 288.061 399.13 301.28 398.749 300.899C398.525 300.675 400.698 293.277 403.578 284.461L408.816 268.432L406.861 266.925C405.786 266.093 399.402 261.472 392.675 256.656L380.442 247.894L397.754 247.661C410.31 247.494 415.248 247.142 415.718 246.381C416.077 245.805 418.57 238.518 421.258 230.186C423.946 221.856 426.384 215.04 426.672 215.04C426.96 215.04 429.216 221.28 431.683 228.906Z" fill="#C4050C"/>
<path fill-rule="evenodd" clip-rule="evenodd" d="M210.986 65.4176C210.4 65.6544 209.92 66.3456 209.92 66.9536C209.92 67.5616 208.768 68.5376 207.36 69.12C205.952 69.7024 204.8 70.5184 204.8 70.9312C204.8 71.344 203.696 71.68 202.346 71.68C200.995 71.68 199.443 72.2176 198.899 72.8736C197.84 74.1472 193.111 73.0656 191.818 71.2544C191.437 70.7232 190.675 70.9312 189.799 71.8112C188.487 73.12 188.515 73.2896 190.205 74.192C191.696 74.992 191.859 75.4688 191.111 76.8672C189.587 79.712 191.091 82.4672 193.92 82.0224C194.272 81.9648 194.56 82.096 194.56 82.3072C194.56 82.848 190.317 87.04 189.77 87.04C189.527 87.04 188.045 88.016 186.48 89.2096C184.442 90.7648 183.53 91.0688 183.261 90.2784C182.96 89.3792 182.637 89.3824 181.53 90.2976C179.763 91.7568 176.016 89.5136 175.626 86.7616C175.367 84.9472 169.815 83.76 169.815 85.5168C169.815 85.8848 167.895 86.1856 165.546 86.1856C160.903 86.1856 158.941 89.6416 162.986 90.7008C164.826 91.1808 165.392 93.1776 163.626 92.9504C161.104 92.6208 160.426 93.1552 160.426 95.4688C160.426 96.8192 161.002 98.4032 161.706 98.9856C164.519 101.318 162.202 119.824 159.082 119.984C151.552 120.365 146.595 124.061 145.523 130.09C145.194 131.946 144.41 133.866 143.776 134.358C141.779 135.917 142.032 139.414 144.445 143.53C145.725 145.712 146.538 148.102 146.253 148.842C145.869 149.84 146.275 150.186 147.831 150.186C148.979 150.186 150.608 150.944 151.443 151.869C152.957 153.539 152.983 153.539 155.091 151.882C157.821 149.731 158.72 150.358 158.72 154.406V157.67L164.48 157.235C167.648 156.995 170.845 156.269 171.587 155.626C172.33 154.979 173.21 154.454 173.546 154.454C173.879 154.454 175.191 153.494 176.455 152.32C177.933 150.95 179.754 150.186 181.539 150.186C185.955 150.186 185.6 149.642 185.907 156.899C186.042 160.134 191.274 165.773 193.386 164.96C194.64 164.48 203.539 168.464 204.429 169.904C204.711 170.362 205.635 170.515 206.48 170.25C208.528 169.597 212.445 171.45 212.618 173.149C212.695 173.898 212.848 175.962 212.96 177.738C213.392 184.602 213.802 185.174 218.282 185.174C221.904 185.174 222.455 185.43 223.347 187.52C223.901 188.81 225.21 190.922 226.259 192.211C228.109 194.48 228.128 194.682 226.839 198.71C226.099 201.027 225.671 204.525 225.875 206.608C226.077 208.662 226.208 211.882 226.167 213.76L226.093 217.174L230.375 217.354C236.061 217.59 237.754 218.64 238.663 222.486C239.29 225.136 239.866 225.782 241.952 226.157C244.403 226.602 244.474 226.752 244.295 231.069C244.154 234.451 244.403 235.52 245.331 235.52C249.427 235.52 248.419 243.6 244.032 245.939C241.207 247.443 230.423 258.278 230.407 259.626C230.403 259.978 231.299 260.266 232.4 260.266C233.501 260.266 235.107 261.043 235.965 261.994C236.826 262.944 237.904 263.597 238.362 263.443C240.538 262.72 250.963 273.808 249.824 275.635C248.538 277.693 249.389 278.589 251.539 277.437C252.487 276.931 253.683 274.794 254.323 272.461C254.941 270.214 256.381 267.13 257.523 265.61C258.669 264.09 259.383 262.269 259.114 261.568C258.704 260.499 258.896 260.461 260.298 261.338C262.496 262.71 262.474 262.8 258.97 266.624C257.319 268.429 256.141 270.077 256.352 270.288C257.373 271.312 262.941 265.411 264.618 261.526C265.779 258.842 267.549 256.483 269.235 255.376C272.141 253.472 273.056 250.899 273.079 244.586C273.091 240.333 273.85 237.226 274.874 237.226C275.287 237.226 276.298 236.637 277.12 235.917C281.728 231.869 284.435 230.253 287.328 229.814C289.104 229.546 291.546 228.413 292.749 227.296C294.736 225.45 295.536 225.293 301.53 225.578C307.187 225.843 308.24 225.67 308.941 224.362C309.392 223.523 310.464 222.611 311.328 222.336C312.192 222.064 313.437 220.787 314.093 219.507C314.749 218.224 317.114 214.717 319.347 211.712C321.783 208.442 323.415 205.354 323.415 204.01C323.415 202.774 323.994 200.938 324.704 199.923C326.659 197.133 329.312 187.795 329.379 183.466C329.411 181.354 329.45 178.474 329.466 177.066C329.507 173.2 331.034 169.843 332.496 170.406C334.061 171.005 337.719 167.642 339.171 164.266C339.779 162.858 343.168 158.73 346.707 155.091C358.336 143.133 359.824 123.734 349.114 123.734C345.53 123.734 341.479 121.421 335.786 116.128C331.187 111.85 328.349 110.755 321.226 110.502C317.719 110.378 314.077 109.709 312.509 108.896C308.8 106.979 302.346 107.261 301.799 109.363C301.571 110.227 300.925 110.934 300.362 110.934C299.722 110.934 299.568 110.374 299.952 109.44C301.367 106.006 301.363 104.819 299.939 103.245C299.114 102.333 298.131 101.776 297.757 102.006C297.386 102.24 296.835 102.038 296.541 101.562C296.247 101.085 295.357 100.682 294.563 100.666C293.77 100.65 291.584 99.8944 289.706 98.9856C284.083 96.2688 278.186 97.4496 278.186 101.29C278.186 101.779 276.362 102.64 274.135 103.206C271.904 103.773 269.485 104.547 268.759 104.925C266.963 105.859 264.419 103.965 265.383 102.406C265.984 101.43 266.343 101.421 267.459 102.352C269.107 103.718 276.48 102.01 276.48 100.259C276.48 99.6736 277.056 98.7168 277.76 98.1344C280.775 95.632 279.28 94.6368 272.906 94.896C266.771 95.1456 266.768 95.1488 266.055 97.92C265.661 99.4464 264.995 100.694 264.579 100.694C264.16 100.694 263.191 100.934 262.419 101.229C261.383 101.629 261.587 100.934 263.203 98.5504C265.629 94.9792 266.074 93.088 264.106 94.72C261.594 96.8064 262.887 94.4192 266.24 90.7808C270.125 86.5664 270.499 84.7584 267.706 83.696C265.818 82.9792 265.303 81.6512 263.299 72.32C262.416 68.2112 259.693 69.9168 256.141 76.8L253.719 81.4944L248.813 81.3216C246.112 81.2288 243.447 80.7744 242.89 80.3104C241.13 78.8512 234.544 80.1888 235.085 81.8976C235.469 83.1072 234.896 83.3728 231.632 83.4976C229.482 83.5776 226.138 84.4096 224.205 85.344C218.762 87.9744 217.443 87.3568 215.296 81.1808C214.346 78.4544 214.407 77.8208 215.786 75.9328C217.501 73.5872 216.912 70.1856 214.563 68.8704C213.888 68.4928 213.335 67.4336 213.335 66.5184C213.335 64.8352 212.919 64.64 210.986 65.4176ZM688.784 65.4944C797.043 65.6128 974.451 65.6128 1083.02 65.4944C1191.6 65.3728 1103.02 65.2768 886.186 65.2768C669.354 65.2768 580.525 65.3728 688.784 65.4944ZM267.661 91.0208C266.384 92.3008 267.216 93.8656 269.178 93.8656C271.917 93.8656 272.695 92.4768 270.586 91.3504C268.618 90.2944 268.413 90.272 267.661 91.0208ZM688.784 196.906C797.043 197.027 974.451 197.027 1083.02 196.906C1191.6 196.787 1103.02 196.691 886.186 196.691C669.354 196.691 580.525 196.787 688.784 196.906ZM688.784 262.614C797.043 262.733 974.451 262.733 1083.02 262.614C1191.6 262.493 1103.02 262.397 886.186 262.397C669.354 262.397 580.525 262.493 688.784 262.614ZM688.784 328.32C797.043 328.438 974.451 328.438 1083.02 328.32C1191.6 328.202 1103.02 328.102 886.186 328.102C669.354 328.102 580.525 328.202 688.784 328.32ZM319.786 394.026C495.904 394.144 784.096 394.144 960.215 394.026C1136.33 393.907 992.234 393.811 640 393.811C287.767 393.811 143.671 393.907 319.786 394.026ZM319.786 459.734C495.904 459.853 784.096 459.853 960.215 459.734C1136.33 459.616 992.234 459.517 640 459.517C287.767 459.517 143.671 459.616 319.786 459.734ZM319.786 525.44C495.904 525.558 784.096 525.558 960.215 525.44C1136.33 525.322 992.234 525.226 640 525.226C287.767 525.226 143.671 525.322 319.786 525.44ZM319.786 656.854C495.904 656.973 784.096 656.973 960.215 656.854C1136.33 656.736 992.234 656.637 640 656.637C287.767 656.637 143.671 656.736 319.786 656.854Z" fill="#2C4494"/>
<path fill-rule="evenodd" clip-rule="evenodd" d="M492.374 32.3394V64.6819H886.186H1280V32.3394V0H886.186H492.374V32.3394ZM492.374 163.404V195.744H886.186H1280V163.404V131.065H886.186H492.374V163.404ZM492.374 294.469V326.809H886.186H1280V294.469V262.127H886.186H492.374V294.469ZM0 425.531V457.873H640H1280V425.531V393.191H640H0V425.531ZM0 556.596V588.935H640H1280V556.596V524.256H640H0V556.596ZM0 687.661V720H640H1280V687.661V655.318H640H0V687.661Z" fill="#242424"/>
<path fill-rule="evenodd" clip-rule="evenodd" d="M64.0417 21.12C63.5585 22.88 61.2705 30.08 58.9537 37.12L54.7425 49.92L37.0817 50.3456L19.4209 50.7744L32.7233 60.4672C40.0417 65.7984 46.3809 70.5984 46.8161 71.1328C47.3281 71.7632 45.8273 77.5424 42.5793 87.4656C39.8145 95.9136 37.5521 103.302 37.5489 103.882C37.5489 104.464 43.7857 100.358 51.4145 94.7616L65.2801 84.5856L67.6353 86.0256C68.9281 86.8192 75.3601 91.3888 81.9265 96.1856C88.4929 100.979 93.8657 104.47 93.8657 103.946C93.8657 103.418 91.9169 96.9984 89.5329 89.68C87.1489 82.3616 84.8641 75.312 84.4545 74.016C83.6033 71.3248 83.7409 71.1968 101.904 58.0256L111.907 50.7744L94.2273 50.3456L76.5441 49.92L71.3633 33.92C65.8529 16.8992 65.4113 16.1248 64.0417 21.12ZM420.986 33.92L415.831 49.92L398.125 50.3456L380.419 50.7744L385.837 54.7072C388.816 56.8704 395.095 61.4272 399.786 64.8352C404.48 68.2432 408.471 71.168 408.656 71.3376C408.842 71.504 408.394 73.2832 407.661 75.2864C404.678 83.4336 398.426 103.43 398.672 104.032C398.816 104.387 405.187 100.102 412.829 94.512L426.727 84.3488L440.778 94.64C448.506 100.301 454.826 104.438 454.826 103.834C454.826 103.232 452.551 95.8528 449.767 87.4368C446.394 77.2288 444.983 71.8048 445.527 71.1488C445.978 70.6048 452.333 65.7984 459.648 60.4672L472.951 50.7744L455.229 50.3456L437.504 49.92L432.346 33.92C429.51 25.12 426.954 17.92 426.666 17.92C426.378 17.92 423.824 25.12 420.986 33.92ZM59.9137 230.867L54.5473 247.434L37.1425 247.664L19.7345 247.894L32.2689 257.078C39.1617 262.131 45.4657 266.778 46.2785 267.402C47.6577 268.461 47.4113 269.603 42.6529 284.205C36.3169 303.648 36.2369 302.976 44.1601 297.078C61.7313 283.997 65.2609 281.574 66.2113 281.939C67.2225 282.326 84.4929 294.842 90.6657 299.661C94.7553 302.854 94.7425 302.726 89.2673 285.91C86.7393 278.144 84.4321 270.995 84.1409 270.029C83.6929 268.531 85.6961 266.758 97.6545 258.08L111.696 247.894L94.3457 247.664L76.9953 247.434L75.2065 242.544C74.2241 239.853 71.8529 232.662 69.9393 226.56C68.0257 220.458 66.1953 215.203 65.8689 214.883C65.5457 214.563 62.8641 221.754 59.9137 230.867ZM421.258 230.186C418.57 238.518 416.077 245.805 415.719 246.381C415.248 247.142 410.31 247.494 397.754 247.661L380.442 247.894L392.675 256.656C399.402 261.472 405.786 266.093 406.861 266.925L408.816 268.432L403.578 284.461C400.698 293.277 398.525 300.675 398.749 300.899C399.13 301.28 418.023 288.061 423.587 283.52C426.698 280.982 425.984 280.646 441.171 291.811C448.218 296.989 454.279 301.226 454.637 301.226C454.999 301.226 453.127 294.602 450.477 286.506C447.831 278.41 445.418 270.992 445.117 270.022C444.65 268.512 446.592 266.806 458.73 258.077L472.89 247.894L455.421 247.664L437.952 247.434L437.059 245.104C436.57 243.821 434.151 236.534 431.683 228.906C429.216 221.28 426.96 215.04 426.672 215.04C426.384 215.04 423.946 221.856 421.258 230.186Z" fill="#FBE904"/>
</svg>
